<svg version="1.1" id="" x="0px" y="0px" viewBox="0 0 52 64.2" style="enable-background:new 0 0 52 64.2;" xml:space="preserve">
  <style type="text/css">
    .st0 {enable-background: new; }
 .st1 {fill: #000000; }

                                                .st2 {
                                                    fill: #000000;
                                                }

                                                #HoverNext {
                                                    opacity: 0;
                                                    transition: all 0.3s ease;
                                                    -webkit-transition: all 0.3s ease;
                                                }

                                                #arrowOneNext {
                                                    opacity: 0.8;
                                                    stroke: #000000;
                                                    stroke-width: 2;
                                                    transition: all 0.3s ease;
                                                    -webkit-transition: all 0.3s ease;
                                                }
  </style>
  <g id="HoverNext" class="st0">
    <path class="st1" d="M12.6,59.1L7.1,49v10c0,0.2-0.1,0.3-0.3,0.3H4.3C4.1,59.3,4,59.2,4,59V44.3C4,44.1,4.1,44,4.3,44h2.9
                                                                                  c0.2,0,0.3,0.1,0.4,0.2l5.5,10.1v-10c0-0.2,0.1-0.3,0.3-0.3h2.5c0.2,0,0.3,0.1,0.3,0.3V59c0,0.2-0.1,0.3-0.3,0.3H13
                                                                                  C12.8,59.3,12.7,59.3,12.6,59.1z"/>
    <path class="st1" d="M18.5,53.9c0-3.2,2.2-5.6,5.5-5.6s5.2,2.4,5.2,5.1c0,1.1-0.2,1.6-1.2,1.6h-6.6c0.3,1.4,1.5,2.1,3.2,2.1
                                                                                  c0.8,0,1.6-0.2,2.5-0.7c0.2-0.1,0.3-0.1,0.4,0.1l0.8,1.1c0.1,0.2,0.1,0.3-0.1,0.5c-0.9,0.9-2.3,1.4-3.8,1.4
                                                                                  C20.9,59.6,18.5,57.2,18.5,53.9z M26.5,53c-0.2-1.4-1.1-2.2-2.4-2.2s-2.4,0.7-2.6,2.2H26.5z"/>
    <path class="st1" d="M30,58.9l3.3-5.1l-3.1-4.9c-0.1-0.2,0-0.4,0.2-0.4H33c0.2,0,0.3,0.1,0.4,0.2l1.7,2.9l1.7-2.9
                                                                                  c0.1-0.2,0.2-0.2,0.4-0.2h2.6c0.3,0,0.4,0.2,0.2,0.4l-3.1,4.9l3.2,5.1c0.2,0.2,0,0.4-0.2,0.4h-2.6c-0.2,0-0.3-0.1-0.4-0.2L35.1,56
                                                                                  l-1.9,3.1c-0.1,0.2-0.2,0.2-0.4,0.2h-2.6C30,59.3,29.9,59.2,30,58.9z"/>
    <path class="st1" d="M43,56.3v-5.4h-1.4c-0.2,0-0.3-0.1-0.3-0.3v-1.7c0-0.2,0.1-0.3,0.3-0.3H43V46c0-0.2,0.1-0.3,0.3-0.3h2.4
                                                                                  c0.2,0,0.3,0.1,0.3,0.3v2.5h1.7c0.2,0,0.3,0.1,0.3,0.3v1.7c0,0.2-0.1,0.3-0.3,0.3H46V56c0,0.6,0.4,0.9,0.9,0.9c0.2,0,0.4,0,0.7,0
                                                                                  c0.2,0,0.4,0.1,0.4,0.3v1.6c0,0.5-1.1,0.6-1.8,0.6C44.5,59.5,43,58.7,43,56.3z"/>
  </g>
  <g id="arrowGroupNext">
    <path id="arrowOneNext" class="st1" d="M16.4,33.9c-0.4,0-0.8-0.1-1.1-0.4c-0.6-0.6-0.6-1.5,0-2.1l14.1-14.1L15.4,3.1
                                                                                  c-0.6-0.6-0.6-1.5,0-2.1s1.5-0.6,2.1,0l15.2,15.2c0.3,0.3,0.4,0.7,0.4,1.1S33,18,32.7,18.3L17.5,33.5
                                                                                  C17.2,33.8,16.8,33.9,16.4,33.9z"/>
  </g>
  <g id="normalNext">
    <path class="st2" d="M13.6,59.1L6.9,47v12c0,0.2-0.1,0.3-0.3,0.3H5.1c-0.2,0-0.3-0.1-0.3-0.3V44.2c0-0.2,0.1-0.3,0.3-0.3h1.8
                                                                                  c0.2,0,0.3,0.1,0.4,0.2L14,56.2v-12c0-0.2,0.1-0.3,0.3-0.3h1.4c0.2,0,0.3,0.1,0.3,0.3V59c0,0.2-0.1,0.3-0.3,0.3h-1.8
                                                                                  C13.8,59.3,13.7,59.3,13.6,59.1z"/>
    <path class="st2" d="M18.9,53.9c0-3.2,2.2-5.6,5.5-5.6c3.2,0,5.1,2.4,5.1,5.1c0,0.9-0.2,1.3-0.9,1.3h-7.7c0.2,1.9,1.6,3.3,4,3.3
                                                                                  c1.2,0,2.1-0.3,2.9-0.9c0.1-0.1,0.3-0.1,0.4,0l0.5,0.7c0.2,0.2,0.1,0.3-0.1,0.5c-0.9,0.9-2.3,1.4-3.9,1.4
                                                                                  C21.2,59.6,18.9,57.1,18.9,53.9z M27.7,53.2c-0.1-1.9-1.4-3.2-3.3-3.2c-1.9,0-3.3,1.2-3.5,3.2H27.7z"/>
    <path class="st2" d="M30.8,59l3.3-5.1L30.9,49c-0.1-0.2-0.1-0.4,0.2-0.4h1.5c0.2,0,0.3,0.1,0.4,0.2l2.3,3.7l2.3-3.7
                                                                                  c0.1-0.2,0.2-0.2,0.4-0.2h1.5c0.2,0,0.3,0.2,0.2,0.4l-3.2,4.9l3.3,5.1c0.2,0.2,0.1,0.4-0.2,0.4h-1.5c-0.2,0-0.3-0.1-0.4-0.2
                                                                                  l-2.4-3.9l-2.4,3.9c-0.1,0.2-0.2,0.2-0.4,0.2H31C30.7,59.3,30.6,59.2,30.8,59z"/>
    <path class="st2" d="M43.2,56.9v-6.8h-1.4c-0.2,0-0.3-0.1-0.3-0.3v-1c0-0.2,0.1-0.3,0.3-0.3h1.4V46c0-0.2,0.1-0.3,0.3-0.3h1.4
                                                                                  c0.2,0,0.3,0.1,0.3,0.3v2.6H47c0.2,0,0.3,0.1,0.3,0.3v1c0,0.2-0.1,0.3-0.3,0.3h-1.8v6.5c0,0.8,0.4,1.1,1,1.1c0.2,0,0.5,0,0.7,0
                                                                                  c0.3,0,0.4,0.1,0.4,0.3V59c0,0.4-0.9,0.5-1.5,0.5C44.2,59.5,43.2,58.7,43.2,56.9z"/>
  </g>
</svg>
